PathFileType	4	(X/Y/Z)	/Users/niels/Desktop/University/Third Semester/Perception and Action/Exam/Gymnastics Motion Tracking/Code for Gym Tracking/Analyzed Data/Webcam_Backflip/id6_2_trajectory_Sports2D/id6_2_trajectory_Sports2D_px_person00.trc
DataRate	CameraRate	NumFrames	NumMarkers	Units	OrigDataRate	OrigDataStartFrame	OrigNumFrames
29.714285714285715	29.714285714285715	12	22	m	29.714285714285715	70	105
Frame#	Time	Hip			RHip			RKnee			RAnkle			RBigToe			RSmallToe			RHeel			LHip			LKnee			LAnkle			LBigToe			LSmallToe			LHeel			Neck			Head			Nose			RShoulder			RElbow			RWrist			LShoulder			LElbow			LWrist		
		X1	Y1	Z1	X2	Y2	Z2	X3	Y3	Z3	X4	Y4	Z4	X5	Y5	Z5	X6	Y6	Z6	X7	Y7	Z7	X8	Y8	Z8	X9	Y9	Z9	X10	Y10	Z10	X11	Y11	Z11	X12	Y12	Z12	X13	Y13	Z13	X14	Y14	Z14	X15	Y15	Z15	X16	Y16	Z16	X17	Y17	Z17	X18	Y18	Z18	X19	Y19	Z19	X20	Y20	Z20	X21	Y21	Z21	X22	Y22	Z22
70	2.355769230769231	0.9370356616153178	-1.1014838008029895	0.0	0.8547659086656082	-1.0948516804112685	0.0	1.1673269122656993	-1.063637822655938	0.0	1.1522421662012734	-1.0672006151676179	0.0			0.0			0.0			0.0	0.9971025143757346	-1.1063031886635393	0.0	1.125879933933901	-1.0611273135193542	0.0	1.161098837852478	-1.0638793634176253	0.0			0.0			0.0			0.0	0.9950240629719965	-0.8842563658181357	0.0	1.0530114112838473	-0.768788273458733	0.0	1.0504755541675734	-0.8412849351488487	0.0	0.8852882262967621	-0.8764080064978047	0.0	0.737981071206827	-0.9071760176556637	0.0	0.6167238106871434	-0.9449501684903594	0.0	1.0619163508268143	-0.9817072710254101	0.0	1.0823876524183533	-1.082724067921982	0.0	1.1571258843309513	-1.0613296215169798	0.0
71	2.3894230769230766	0.9368665135955851	-1.1005593500654616	0.0	0.8555447344553918	-1.0936800283853156	0.0	1.1673274178088688	-1.0636382144141578	0.0	1.1522421662012734	-1.0672006151676179	0.0			0.0			0.0			0.0	0.9963368307241077	-1.1054928085328601	0.0	1.1241017390169488	-1.062685307530917	0.0	1.161098837852478	-1.0638793634176253	0.0			0.0			0.0			0.0	0.9951888992352408	-0.8838403791681932	0.0	1.0530566984316907	-0.7687003752037922	0.0	1.0502394219528615	-0.8407361515161548	0.0	0.8855251627085726	-0.8768858057467988	0.0	0.7389920356235528	-0.9110377178495923	0.0	0.6159379580067238	-0.9525657696322881	0.0	1.0613921227543763	-0.9811608901505097	0.0	1.0797028734494942	-1.0827061048569995	0.0	1.1419647522211747	-1.0628039811902832	0.0
72	2.423076923076923	0.9355348347791154	-1.1008876195154038	0.0	0.8559096000576768	-1.0939305813674411	0.0	1.167327908814099	-1.063638608997467	0.0	1.1522421662012734	-1.0672006151676179	0.0			0.0			0.0			0.0	0.9944719437632649	-1.1060566141332664	0.0	1.120827569621648	-1.0652684982456972	0.0	1.161098837852478	-1.0638793634176253	0.0			0.0			0.0			0.0	0.9953082727516345	-0.8832214289319742	0.0	1.0532084006751858	-0.7685284799562369	0.0	1.049991806858624	-0.8400574972343915	0.0	0.8858940346481121	-0.8771629112460908	0.0	0.7398129037817939	-0.9150443631042142	0.0	0.6149033485481544	-0.9609422564562388	0.0	1.0604197968395117	-0.9802273900833881	0.0	1.0755657719098777	-1.0833075250519735	0.0	1.1198102094854032	-1.0653952421604094	0.0
73	2.456730769230769	0.9332171026029898	-1.1026273390622658	0.0	0.8557500152234764	-1.0958541212079647	0.0	1.1673279718285225	-1.063638946987897	0.0	1.1522421662012734	-1.0672006151676179	0.0			0.0			0.0			0.0	0.9917751331510034	-1.1081807001597244	0.0	1.1160697006575302	-1.0686465841578343	0.0	1.161098837852478	-1.0638793634176253	0.0			0.0			0.0			0.0	0.9954525744394529	-0.8825005049498718	0.0	1.053464740245934	-0.7683076485094636	0.0	1.0497913787643791	-0.8394428774597794	0.0	0.88643950063797	-0.8773210392017085	0.0	0.740402717263195	-0.919475996511016	0.0	0.6137303757105642	-0.9704180468580194	0.0	1.0591635919554332	-0.9789905424881576	0.0	1.0702871507082587	-1.084608595265752	0.0	1.0940227401060691	-1.0689228245950981	0.0
74	2.4903846153846154	0.9305851566561256	-1.1052899128270806	0.0	0.8552777348301595	-1.0988426170504442	0.0	1.167326854445365	-1.0636392042214209	0.0	1.1522421662012734	-1.0672006151676179	0.0			0.0			0.0			0.0	0.9890144769563204	-1.1112356999872743	0.0	1.1100129995862582	-1.0720230238608712	0.0	1.161098837852478	-1.0638793634176253	0.0			0.0			0.0			0.0	0.9956991179295667	-0.8817988265165274	0.0	1.053851363702902	-0.7681290316341707	0.0	1.0496954283677884	-0.8390445258058745	0.0	0.8871626991553819	-0.8775043042007042	0.0	0.7408786034858841	-0.9247917072015888	0.0	0.6126212992593388	-0.9815205028044628	0.0	1.0578767305538757	-0.9776838018797767	0.0	1.0645797823820207	-1.0862769195022661	0.0	1.0702836695869107	-1.0727706475670409	0.0
75	2.5240384615384612	0.9284008530201768	-1.1080665107934817	0.0	0.8548192644645106	-1.1018310610141437	0.0	1.1673235205392674	-1.063639334309376	0.0	1.1522421662012734	-1.0672006151676179	0.0			0.0			0.0			0.0	0.986999614918866	-1.114204555288426	0.0	1.1017997965087996	-1.074491512374688	0.0	1.161098837852478	-1.0638793634176253	0.0			0.0			0.0			0.0	0.996107726786924	-0.881287373641352	0.0	1.0543861661150222	-0.7681138392809403	0.0	1.0497828029734173	-0.8389194260659679	0.0	0.8880216706523169	-0.8779075916451325	0.0	0.7414478867247889	-0.9315578951732116	0.0	0.611940901121046	-0.9947398514165893	0.0	1.0568609729296705	-0.9767503169488546	0.0	1.0592751559162832	-1.0878985003057982	0.0	1.0530488361138246	-1.0762369199986823	0.0
76	2.5576923076923075	0.9271650805946424	-1.1103143030242864	0.0	0.8546534271345483	-1.1040205925366446	0.0	1.1673169387003814	-1.0636392273623294	0.0	1.1522421662012734	-1.0672006151676179	0.0			0.0			0.0			0.0	0.9861460057786828	-1.1163501860494733	0.0	1.0900877183096933	-1.0756681843993776	0.0	1.161098837852478	-1.0638793634176253	0.0			0.0			0.0			0.0	0.9966734986094015	-0.8811772542398769	0.0	1.0550240164871072	-0.7683859917143343	0.0	1.0501596212002067	-0.8390577555179177	0.0	0.8889368182100744	-0.8788021314515719	0.0	0.7422956806710519	-0.9403816356769986	0.0	0.6123055718303296	-1.0102160291197175	0.0	1.0563328107497583	-0.9766545473641413	0.0	1.0549538207843638	-1.089277754000426	0.0	1.0434253321920586	-1.0789598681918144	0.0
77	2.5913461538461537	0.9272073850464511	-1.1115659594577514	0.0	0.8551516403634916	-1.1050438194175278	0.0	1.1673067611679389	-1.0636386967375004	0.0	1.1522421662012734	-1.0672006151676179	0.0			0.0			0.0			0.0	0.9864910288330501	-1.1172707395559387	0.0	1.0757789324888953	-1.0757076593426564	0.0	1.161098837852478	-1.0638793634176253	0.0			0.0			0.0			0.0	0.9972722438861341	-0.8816055888941271	0.0	1.0556088051153296	-0.7689982449412311	0.0	1.050903767503359	-0.8394309194976206	0.0	0.8897780427791572	-0.8805653898868979	0.0	0.7436130407690217	-0.9517810398740593	0.0	0.6148666253710874	-1.0274399389972875	0.0	1.0562578884271216	-0.9775234204728153	0.0	1.0517881292828366	-1.09028163548209	0.0	1.0399597468577455	-1.080944022692343	0.0
78	2.625	0.9288883994491595	-1.1112824192428656	0.0	0.8568493444113919	-1.1046735698508974	0.0	1.1672945152972747	-1.0636375143589436	0.0	1.1522421662012734	-1.0672006151676179	0.0			0.0			0.0			0.0	0.9879188268108551	-1.116648498223354	0.0	1.0621320815696151	-1.0750152404479292	0.0	1.161098837852478	-1.0638793634176253	0.0			0.0			0.0			0.0	0.9976444147522544	-0.8825359653754207	0.0	1.0558926856367223	-0.7698629106003697	0.0	1.0519860979741118	-0.8400312749600296	0.0	0.8903852523467486	-0.8836372463057514	0.0	0.7457791313367041	-0.9659722465836941	0.0	0.621629723046952	-1.0451496622741128	0.0	1.05623954861014	-0.9789359780112245	0.0	1.049605601886654	-1.090569557368048	0.0	1.0402049219953722	-1.082294610899318	0.0
79	2.658653846153846	0.9324384336156816	-1.1088841821131359	0.0	0.8601287485135488	-1.1027730583537247	0.0	1.1672852638267945	-1.0636355244129874	0.0	1.1522421662012734	-1.0672006151676179	0.0			0.0			0.0			0.0	0.990206621900748	-1.1143330783427379	0.0	1.0518675618172562	-1.074077277230541	0.0	1.161098837852478	-1.0638793634176253	0.0			0.0			0.0			0.0	0.9974636426818435	-0.883795023046244	0.0	1.0556431694365427	-0.7708003118600338	0.0	1.0532356035261914	-0.840874154417496	0.0	0.8906236297746917	-0.8883767486609209	0.0	0.7495029462739816	-0.9826703732785766	0.0	0.6354985756643147	-1.0614958858434826	0.0	1.0555653857718135	-0.9800567134568732	0.0	1.0479889593237754	-1.089656829576621	0.0	1.0417795030649721	-1.0830143348438463	0.0
80	2.692307692307692	0.9375292144668088	-1.1040989493672577	0.0	0.8647581070952165	-1.0995615793605444	0.0	1.1672893181682529	-1.0636328656174596	0.0	1.1522421662012734	-1.0672006151676179	0.0			0.0			0.0			0.0	0.9929643280261579	-1.1106087034477552	0.0	1.0456124232610629	-1.0732755711124171	0.0	1.161098837852478	-1.0638793634176253	0.0			0.0			0.0			0.0	0.9964763698519462	-0.8851909512809712	0.0	1.0547186630351844	-0.7716366275579346	0.0	1.0543600605258632	-0.8419467393848208	0.0	0.890437005366538	-0.8949289170976518	0.0	0.7557119308795547	-1.0010647551576866	0.0	0.6600020540992241	-1.074470325024406	0.0	1.053516540936661	-0.9800524642140073	0.0	1.0464027637045723	-1.087264089868963	0.0	1.0429907969759702	-1.0829533841640544	0.0
81	2.7259615384615383	0.9430058765902297	-1.0974062860839877	0.0	0.8697764720790679	-1.095784571867746	0.0	1.1673229607530002	-1.063630309944485	0.0	1.1522421662012734	-1.0672006151676179	0.0			0.0			0.0			0.0	0.9956576809987411	-1.106312636928657	0.0	1.0425285739417145	-1.0727756658604037	0.0	1.161098837852478	-1.0638793634176253	0.0			0.0			0.0			0.0	0.9946124569692938	-0.8866034375821722	0.0	1.0530454359446426	-0.7722554881328118	0.0	1.055053734062847	-0.843167753660558	0.0	0.8899297561290924	-0.9031672377835239	0.0	0.7651846361063849	-1.0199799233001634	0.0	0.6986443376344128	-1.0825783582058985	0.0	1.0497444829911509	-0.9785025284702153	0.0	1.0443657749323207	-1.0836705933573376	0.0	1.0430396187799886	-1.081939460571607	0.0
